<svg xmlns="http://www.w3.org/2000/svg" viewBox="0 0 512 512"><path d="M504.502 75.496c-9.997-9.998-26.205-9.998-36.204 0L161.594 382.203 43.702 264.311c-9.997-9.998-26.205-9.997-36.204 0-9.998 9.997-9.998 26.205 0 36.203l135.994 135.992c9.994 9.997 26.214 9.99 36.204 0L504.502 111.7c9.998-9.997 9.997-26.206 0-36.204z"/><path d="M154.171 442.198c-1.832-.659-4.116-1.64-5.075-2.181-.96-.541-33.839-33.066-73.066-72.277-47.828-47.81-71.94-72.568-73.2-75.163-2.458-5.063-2.506-14.647-.101-19.923 4.292-9.416 12.722-15.067 22.49-15.076 11.287-.01 9.328-1.684 75.9 64.833l60.671 60.623 155.358-155.26c85.447-85.394 156.856-156.044 158.688-157 4.927-2.573 16.34-2.405 21.478.317 4.714 2.496 10.326 8.54 12.285 13.227 2.234 5.346 1.858 14.237-.84 19.89-1.848 3.87-33.27 35.716-168.2 170.474-153.028 152.833-166.292 165.835-170.617 167.256-5.547 1.823-11.167 1.916-15.771.26z" fill="#fff"/></svg>